<svg width="34" height="35" viewBox="0 0 34 35" fill="none" xmlns="http://www.w3.org/2000/svg">
<path d="M23.3588 8.64073L26.2711 11.6398L23.3588 8.64073ZM25.2316 5.99865L17.357 14.1119C16.9501 14.5305 16.6726 15.0639 16.5595 15.6447L15.8321 19.3961L19.4731 18.6452C20.0368 18.5291 20.5538 18.2443 20.9608 17.825L28.8355 9.71173C29.0721 9.46793 29.2598 9.17849 29.3879 8.85994C29.5159 8.5414 29.5819 8.19998 29.5819 7.85519C29.5819 7.5104 29.5159 7.16898 29.3879 6.85044C29.2598 6.53189 29.0721 6.24245 28.8355 5.99865C28.5988 5.75484 28.3179 5.56145 28.0087 5.4295C27.6996 5.29756 27.3682 5.22964 27.0335 5.22964C26.6989 5.22964 26.3675 5.29756 26.0583 5.4295C25.7491 5.56145 25.4682 5.75484 25.2316 5.99865V5.99865Z" stroke="#031323" stroke-width="2" stroke-linecap="round" stroke-linejoin="round"/>
<path d="M26.8321 22.2294V26.4794C26.8321 27.2309 26.5424 27.9515 26.0266 28.4829C25.5109 29.0142 24.8114 29.3127 24.0821 29.3127H8.95709C8.22775 29.3127 7.52827 29.0142 7.01255 28.4829C6.49682 27.9515 6.20709 27.2309 6.20709 26.4794V10.8961C6.20709 10.1446 6.49682 9.42396 7.01255 8.89261C7.52827 8.36126 8.22775 8.06274 8.95709 8.06274H13.0821" stroke="#031323" stroke-width="2" stroke-linecap="round" stroke-linejoin="round"/>
</svg>
