<svg width="25" height="28" viewBox="0 0 25 28" fill="none" xmlns="http://www.w3.org/2000/svg">
<path d="M7.64398 3.08878H7.38617C7.52797 3.08878 7.64398 2.96924 7.64398 2.82315V3.08878H17.4409V2.82315C17.4409 2.96924 17.5569 3.08878 17.6987 3.08878H17.4409V5.4794H19.7612V2.82315C19.7612 1.65108 18.8363 0.698151 17.6987 0.698151H7.38617C6.24857 0.698151 5.32367 1.65108 5.32367 2.82315V5.4794H7.64398V3.08878ZM23.8862 5.4794H1.19867C0.628259 5.4794 0.167419 5.95421 0.167419 6.5419V7.6044C0.167419 7.75049 0.283435 7.87003 0.425232 7.87003H2.37172L3.16771 25.2353C3.21927 26.3675 4.12806 27.2607 5.22699 27.2607H19.8578C20.96 27.2607 21.8656 26.3708 21.9171 25.2353L22.7131 7.87003H24.6596C24.8014 7.87003 24.9174 7.75049 24.9174 7.6044V6.5419C24.9174 5.95421 24.4566 5.4794 23.8862 5.4794ZM19.6097 24.87H5.47513L4.69525 7.87003H20.3896L19.6097 24.87Z" fill="#031323"/>
</svg>
